<svg width="16" height="16" viewBox="0 0 16 16" fill="none" xmlns="http://www.w3.org/2000/svg">
<path d="M15.4082 5.67516L10.7176 4.9936L8.62013 0.743349C8.56308 0.627686 8.47481 0.530294 8.36529 0.462194C8.25578 0.394093 8.12938 0.358002 8.00042 0.358002C7.87146 0.358002 7.74507 0.394093 7.63555 0.462194C7.52603 0.530294 7.43776 0.627686 7.38072 0.743349L5.2825 4.9936L0.591953 5.67516C0.464342 5.69361 0.34444 5.7474 0.245816 5.83046C0.147192 5.91352 0.0737829 6.02252 0.0338919 6.14513C-0.005999 6.26774 -0.0107782 6.39907 0.0200955 6.52426C0.0509693 6.64944 0.116263 6.76349 0.20859 6.8535L3.60323 10.1624L2.80186 14.8344C2.78014 14.9615 2.7944 15.0921 2.84303 15.2115C2.89165 15.331 2.97271 15.4344 3.07704 15.5101C3.18137 15.5859 3.30481 15.631 3.43341 15.6402C3.56201 15.6495 3.69064 15.6226 3.80476 15.5626L8.00034 13.3572L12.1959 15.5625C12.31 15.6225 12.4386 15.6493 12.5672 15.64C12.6958 15.6307 12.8192 15.5857 12.9235 15.5099C13.0278 15.4342 13.1088 15.3308 13.1574 15.2114C13.2061 15.092 13.2203 14.9614 13.1986 14.8343L12.3973 10.1624L15.7915 6.8535C15.8838 6.76349 15.949 6.64946 15.9799 6.52429C16.0108 6.39912 16.006 6.26782 15.9661 6.14522C15.9262 6.02263 15.8529 5.91364 15.7543 5.83058C15.6557 5.74753 15.5358 5.69363 15.4082 5.67516ZM11.172 9.42673C11.0919 9.50497 11.032 9.60149 10.9974 9.708C10.9627 9.81451 10.9545 9.92783 10.9733 10.0382L11.5996 13.6879L8.32185 11.9649C8.22279 11.9124 8.11237 11.8849 8.00025 11.8849C7.88812 11.8849 7.77771 11.9124 7.67865 11.9649L4.40088 13.6878L5.02681 10.0381C5.04563 9.92776 5.03738 9.81446 5.00278 9.70796C4.96817 9.60147 4.90824 9.50496 4.82813 9.42673L2.1762 6.84132L5.8407 6.30886C5.95158 6.29281 6.05688 6.25001 6.14753 6.18417C6.23817 6.11833 6.31143 6.03142 6.36098 5.93093L8.00025 2.61067L9.63883 5.93093C9.68845 6.03143 9.76178 6.11834 9.85248 6.18418C9.94318 6.25002 10.0485 6.29281 10.1595 6.30886L13.824 6.8414L11.172 9.42673Z" fill="black"/>
<path d="M11.172 9.42673C11.0919 9.50497 11.032 9.60149 10.9974 9.708C10.9627 9.81451 10.9545 9.92783 10.9733 10.0382L11.5996 13.6879L8.32185 11.9649C8.22279 11.9124 8.11237 11.8849 8.00025 11.8849C7.88812 11.8849 7.77771 11.9124 7.67865 11.9649L4.40088 13.6878L5.02681 10.0381C5.04563 9.92776 5.03738 9.81446 5.00278 9.70796C4.96817 9.60147 4.90824 9.50496 4.82813 9.42673L2.1762 6.84132L5.8407 6.30886C5.95158 6.29281 6.05688 6.25001 6.14753 6.18417C6.23817 6.11833 6.31143 6.03142 6.36098 5.93093L8.00025 2.61067L9.63883 5.93093C9.68845 6.03143 9.76178 6.11834 9.85248 6.18418C9.94318 6.25002 10.0485 6.29281 10.1595 6.30886L13.824 6.8414L11.172 9.42673Z" fill="black"/>
</svg>
